<svg width="180" height="180" viewBox="0 0 180 180" fill="none" xmlns="http://www.w3.org/2000/svg">
<rect width="180" height="180" fill="white"/>
<path d="M26 26H154V154H26V26Z" fill="white"/>
<path fill-rule="evenodd" clip-rule="evenodd" d="M53.5025 61.2693L38.7506 75.9567L34.3594 117.361L50.9552 133.885H129.612L145.737 117.343L142.445 75.9473L127.211 61.2693H53.5025ZM130.438 53.2693H50.199L31.0945 72.2902L26 120.328L47.6517 141.885H132.985L154 120.328L150.179 72.2902L130.438 53.2693Z" fill="black"/>
<path fill-rule="evenodd" clip-rule="evenodd" d="M99.8463 31.1154H80.154V43.4231H99.8463V31.1154ZM60.4617 101.269C60.4617 93.7921 66.523 87.7308 74.0001 87.7308C81.4772 87.7308 87.5386 93.7921 87.5386 101.269V104.962H60.4617V101.269ZM97.3847 101.269C97.3847 93.7921 103.446 87.7308 110.923 87.7308C118.4 87.7308 124.462 93.7921 124.462 101.269V104.962H97.3847V101.269Z" fill="#FF5F00"/>
</svg>
